HIERARCHY
ROOT Hips
{
	OFFSET 0.00000 0.00000 0.00000
	CHANNELS 6 Xposition Yposition Zposition Zrotation Yrotation Xrotation 
	JOINT LHipJoint
	{
		OFFSET 0 0 0
		CHANNELS 3 Zrotation Yrotation Xrotation
		JOINT LeftUpLeg
		{
			OFFSET 1.53139 -1.83434 0.76626
			CHANNELS 3 Zrotation Yrotation Xrotation
			JOINT LeftLeg
			{
				OFFSET 2.56112 -7.03663 0.00000
				CHANNELS 3 Zrotation Yrotation Xrotation
				JOINT LeftFoot
				{
					OFFSET 2.59983 -7.14299 0.00000
					CHANNELS 3 Zrotation Yrotation Xrotation
					JOINT LeftToeBase
					{
						OFFSET 0.13742 -0.37757 2.00054
						CHANNELS 3 Zrotation Yrotation Xrotation
						End Site
						{
							OFFSET 0.00000 -0.00000 1.02897
						}
					}
				}
			}
		}
	}
	JOINT RHipJoint
	{
		OFFSET 0 0 0
		CHANNELS 3 Zrotation Yrotation Xrotation
		JOINT RightUpLeg
		{
			OFFSET -1.40122 -1.83435 0.76627
			CHANNELS 3 Zrotation Yrotation Xrotation
			JOINT RightLeg
			{
				OFFSET -2.54052 -6.98003 0.00000
				CHANNELS 3 Zrotation Yrotation Xrotation
				JOINT RightFoot
				{
					OFFSET -2.63179 -7.23079 0.00000
					CHANNELS 3 Zrotation Yrotation Xrotation
					JOINT RightToeBase
					{
						OFFSET -0.24131 -0.66299 2.03908
						CHANNELS 3 Zrotation Yrotation Xrotation
						End Site
						{
							OFFSET -0.00000 -0.00000 1.07391
						}
					}
				}
			}
		}
	}
	JOINT LowerBack
	{
		OFFSET 0 0 0
		CHANNELS 3 Zrotation Yrotation Xrotation
		JOINT Spine
		{
			OFFSET 0.01174 2.10302 -0.29778
			CHANNELS 3 Zrotation Yrotation Xrotation
			JOINT Spine1
			{
				OFFSET 0.00772 2.13227 -0.01247
				CHANNELS 3 Zrotation Yrotation Xrotation
				JOINT Neck
				{
					OFFSET 0 0 0
					CHANNELS 3 Zrotation Yrotation Xrotation
					JOINT Neck1
					{
						OFFSET -0.09219 1.60848 0.31481
						CHANNELS 3 Zrotation Yrotation Xrotation
						JOINT Head
						{
							OFFSET 0.13974 1.65456 -0.31134
							CHANNELS 3 Zrotation Yrotation Xrotation
							End Site
							{
								OFFSET 0.04742 1.69515 -0.14578
							}
						}
					}
				}
				JOINT LeftShoulder
				{
					OFFSET 0 0 0
					CHANNELS 3 Zrotation Yrotation Xrotation
					JOINT LeftArm
					{
						OFFSET 3.24909 1.02882 -0.23993
						CHANNELS 3 Zrotation Yrotation Xrotation
						JOINT LeftForeArm
						{
							OFFSET 5.32955 -0.00000 -0.00000
							CHANNELS 3 Zrotation Yrotation Xrotation
							JOINT LeftHand
							{
								OFFSET 3.69232 -0.00000 -0.00000
								CHANNELS 3 Zrotation Yrotation Xrotation
								JOINT LeftFingerBase
								{
									OFFSET 0 0 0
									CHANNELS 3 Zrotation Yrotation Xrotation
									JOINT LeftHandIndex1
									{
										OFFSET 0.53660 -0.00000 -0.00000
										CHANNELS 3 Zrotation Yrotation Xrotation
										End Site
										{
											OFFSET 0.43262 -0.00000 -0.00000
										}
									}
								}
								JOINT LThumb
								{
									OFFSET 0 0 0
									CHANNELS 3 Zrotation Yrotation Xrotation
									End Site
									{
										OFFSET 0.43922 -0.00000 0.43922
									}
								}
							}
						}
					}
				}
				JOINT RightShoulder
				{
					OFFSET 0 0 0
					CHANNELS 3 Zrotation Yrotation Xrotation
					JOINT RightArm
					{
						OFFSET -3.21387 0.93002 -0.34594
						CHANNELS 3 Zrotation Yrotation Xrotation
						JOINT RightForeArm
						{
							OFFSET -5.23431 -0.00000 0.00000
							CHANNELS 3 Zrotation Yrotation Xrotation
							JOINT RightHand
							{
								OFFSET -3.55301 -0.00000 -0.00000
								CHANNELS 3 Zrotation Yrotation Xrotation
								JOINT RightFingerBase
								{
									OFFSET 0 0 0
									CHANNELS 3 Zrotation Yrotation Xrotation
									JOINT RightHandIndex1
									{
										OFFSET -0.77252 -0.00000 -0.00000
										CHANNELS 3 Zrotation Yrotation Xrotation
										End Site
										{
											OFFSET -0.62283 -0.00000 -0.00000
										}
									}
								}
								JOINT RThumb
								{
									OFFSET 0 0 0
									CHANNELS 3 Zrotation Yrotation Xrotation
									End Site
									{
										OFFSET -0.63234 -0.00000 0.63234
									}
								}
							}
						}
					}
				}
			}
		}
	}
}
MOTION
Frames: 8
Frame Time: .0083333
6.8730 18.0781 -2.5549 10.0687 -51.3339 -8.1928 0.0000 0.0000 0.0000 -30.5870 -5.3535 -7.3610 1.2799 7.1696 20.2187 0.1450 -4.8621 -7.0946 0.0169 0.8397 2.3079 0.0000 0.0000 0.0000 10.7709 4.3345 -16.5238 -13.9436 -19.0968 72.0322 0.0053 1.3762 -0.0182 -0.1717 -2.6693 7.3593 -4.4787 1.0388 11.5852 -1.2014 0.7060 1.3411 1.1555 0.4108 -5.1339 -9.7117 -3.6007 -21.5107 5.7695 -3.5575 25.9685 3.2274 -1.8331 12.4797 -0.0000 0.0000 0.0000 -86.1886 4.2266 21.2421 18.1181 -28.3082 -4.6051 -0.0000 -0.0000 10.6781 16.3895 25.2441 7.1495 -7.1250 0.0000 -0.0000 -14.2780 55.5791 -3.7626 -0.0000 0.0000 0.0000 90.3371 -4.9537 12.2855 -20.3469 31.0581 -5.7093 0.0000 0.0000 8.0806 -13.0884 7.6221 -1.7663 7.1250 -0.0000 -0.0000 9.9838 -22.1947 5.5553
6.7803 18.0661 -2.4665 9.9220 -51.1390 -8.1284 0.0000 0.0000 0.0000 -30.6408 -5.4428 -6.8614 1.3072 7.2425 20.4359 0.1723 -4.6918 -7.5933 0.0205 0.9239 2.5394 0.0000 0.0000 0.0000 10.8377 4.5418 -17.6918 -13.9915 -19.1115 72.1785 -0.0038 1.4721 -1.4193 -0.1158 -2.1940 6.0421 -4.4599 0.9017 11.7301 -1.1106 0.5218 1.2503 1.2674 0.3257 -5.3009 -9.6925 -3.5324 -21.4728 5.6713 -3.4547 26.2066 3.2089 -1.8053 12.5551 0.0000 0.0000 0.0000 -86.0327 4.0321 21.4949 18.3862 -28.6489 -4.7330 -0.0000 -0.0000 10.7368 15.3553 25.2203 6.6738 -7.1250 0.0000 -0.0000 -15.3179 55.3512 -3.9602 0.0000 0.0000 0.0000 89.8387 -5.7118 14.0813 -21.1523 32.0057 -6.1305 0.0000 0.0000 6.3833 -13.2107 7.0622 -1.6532 7.1250 -0.0000 -0.0000 9.9240 -22.7562 5.3917
6.6865 18.0505 -2.3780 9.8824 -50.9636 -8.1818 0.0000 0.0000 0.0000 -30.7361 -5.3420 -6.4761 1.3521 7.3611 20.7896 0.2017 -4.7651 -8.1571 0.0183 0.8727 2.3987 0.0000 0.0000 0.0000 10.8436 4.8398 -18.7455 -13.9843 -19.1093 72.1565 -0.0229 1.5349 -2.7346 -0.1186 -2.2201 6.1144 -4.4932 0.8226 11.8291 -1.0827 0.4080 1.2377 1.3330 0.2721 -5.3634 -9.6782 -3.5228 -21.3669 5.6694 -3.4616 26.2589 3.2058 -1.8106 12.5549 -0.0000 0.0000 0.0000 -85.6867 3.6454 22.1753 18.5162 -28.8131 -4.7955 -0.0000 -0.0000 10.0994 15.8726 24.3477 6.6861 -7.1250 0.0000 -0.0000 -14.3501 54.5975 -3.4367 -0.0000 0.0000 0.0000 89.6092 -6.0831 14.9888 -21.7067 32.6439 -6.4269 0.0000 0.0000 5.4128 -13.1792 6.8956 -1.6104 7.1250 -0.0000 -0.0000 9.9558 -22.9256 5.3702
6.5911 18.0351 -2.2916 9.9912 -50.7572 -8.3672 0.0000 0.0000 0.0000 -30.9118 -5.1118 -6.1763 1.4094 7.5089 21.2320 0.2342 -5.0539 -8.7763 0.0150 0.7909 2.1735 0.0000 0.0000 0.0000 10.7295 5.0329 -19.7732 -13.9238 -19.0908 71.9717 -0.0507 1.7455 -4.0052 -0.0902 -1.9367 5.3308 -4.6846 0.7647 11.8379 -1.0487 0.3102 1.3515 1.4930 0.2238 -5.2440 -9.6875 -3.5489 -21.4138 5.6737 -3.4884 26.2002 3.2030 -1.8205 12.5438 -0.0000 -0.0000 0.0000 -85.4308 2.9966 22.8474 18.6251 -28.9501 -4.8480 -0.0000 -0.0000 9.1092 17.1416 24.2105 7.2089 -7.1250 0.0000 -0.0000 -13.0009 54.7057 -3.1393 -0.0000 -0.0000 0.0000 89.4664 -5.8800 15.0672 -21.8784 32.8393 -6.5198 0.0000 0.0000 5.3171 -13.0712 6.9690 -1.6136 7.1250 -0.0000 -0.0000 10.0305 -22.8548 5.4283
6.4957 18.0200 -2.2065 10.1667 -50.5418 -8.5964 0.0000 0.0000 0.0000 -31.1330 -5.0169 -5.8427 1.4639 7.6466 21.6456 0.2586 -5.2760 -9.2166 0.0461 1.3852 3.8093 0.0000 0.0000 0.0000 10.5472 5.2210 -20.7882 -13.8169 -19.0576 71.6446 -0.0842 2.0872 -5.1564 -0.0850 -1.8800 5.1741 -4.8769 0.6963 11.9254 -1.0335 0.1903 1.3956 1.6365 0.1679 -5.2397 -9.7742 -3.5750 -21.4711 5.7368 -3.5098 26.2427 3.2394 -1.8304 12.5777 0.0000 -0.0000 0.0000 -85.2607 2.4847 23.2760 18.8144 -29.1874 -4.9400 -0.0000 -0.0000 8.5642 17.7762 24.8685 7.6787 -7.1250 0.0000 -0.0000 -12.6691 55.4843 -3.2987 0.0000 -0.0000 0.0000 89.3169 -5.7838 15.1099 -22.0174 32.9967 -6.5953 0.0000 0.0000 5.3860 -12.9724 6.9968 -1.6073 7.1250 -0.0000 -0.0000 10.1010 -22.8300 5.4734
6.3998 18.0036 -2.1177 10.3266 -50.3921 -8.7963 0.0000 0.0000 0.0000 -31.3476 -5.0530 -5.4478 1.5143 7.7713 22.0216 0.2814 -5.3196 -9.5854 0.1439 2.4446 6.7360 0.0000 0.0000 0.0000 10.3875 5.4376 -21.7674 -13.6554 -19.0062 71.1493 -0.1184 2.4054 -6.1118 -0.0808 -1.8338 5.0466 -4.9854 0.6308 12.0066 -1.0425 0.0825 1.3631 1.7054 0.1191 -5.3124 -9.8944 -3.5679 -21.2889 5.8928 -3.5253 26.2070 3.3174 -1.8315 12.5337 -0.0000 0.0000 0.0000 -84.9903 2.1240 23.8340 18.9917 -29.4083 -5.0268 -0.0000 -0.0000 8.2284 18.0076 25.4332 7.9473 -7.1250 0.0000 -0.0000 -12.7106 56.0928 -3.4985 -0.0000 0.0000 0.0000 89.1821 -5.8959 15.1684 -22.1671 33.1653 -6.6770 0.0000 0.0000 5.4349 -12.9719 7.1745 -1.6479 7.1250 -0.0000 -0.0000 10.0915 -22.6506 5.5103
6.3046 17.9858 -2.0310 10.4523 -50.2810 -8.9923 0.0000 0.0000 0.0000 -31.5383 -5.0384 -5.0287 1.5629 7.8891 22.3778 0.3099 -5.3756 -10.0291 0.2186 3.0098 8.3061 0.0000 0.0000 0.0000 10.2774 5.6321 -22.7202 -13.4480 -18.9380 70.5113 -0.1504 2.6782 -6.8882 -0.0408 -1.3038 3.5851 -5.1098 0.5827 12.1581 -1.0509 -0.0095 1.3345 1.7814 0.0792 -5.4210 -9.8630 -3.5563 -21.1810 5.9660 -3.5551 26.1822 3.3351 -1.8334 12.5052 0.0000 -0.0000 0.0000 -84.7220 1.7366 24.2301 19.1608 -29.6180 -5.1101 -0.0000 -0.0000 8.0042 18.2384 25.9187 8.1962 -7.1250 0.0000 -0.0000 -12.7190 56.6229 -3.6650 0.0000 -0.0000 0.0000 89.1189 -5.9617 15.2051 -22.2829 33.2953 -6.7405 0.0000 0.0000 5.5044 -13.0973 7.0786 -1.6423 7.1250 -0.0000 -0.0000 10.0055 -22.7432 5.4403
6.2088 17.9626 -1.9494 10.6063 -50.1664 -9.1186 0.0000 0.0000 0.0000 -31.7199 -4.8438 -4.7569 1.6066 7.9936 22.6946 0.3443 -5.5046 -10.5513 0.1734 2.6827 7.3965 0.0000 0.0000 0.0000 10.1581 5.8329 -23.7761 -13.2052 -18.8550 69.7616 -0.1865 2.6895 -7.6708 -0.0126 -0.7242 1.9903 -5.3317 0.5615 12.1958 -1.0551 -0.0704 1.3423 1.9120 0.0539 -5.4294 -9.6888 -3.5852 -21.2274 5.8071 -3.6068 26.2133 3.2353 -1.8596 12.5249 -0.0000 0.0000 0.0000 -84.5789 1.2911 24.2860 19.3714 -29.8776 -5.2146 -0.0000 -0.0000 7.9993 18.0351 25.7465 8.0503 -7.1250 0.0000 -0.0000 -12.8417 56.4095 -3.6345 -0.0000 0.0000 0.0000 89.1021 -5.8530 15.1808 -22.3477 33.3678 -6.7761 0.0000 0.0000 5.5454 -13.1409 6.9212 -1.6115 7.1250 -0.0000 -0.0000 9.9824 -22.9009 5.3908
